<?xml version="1.0" encoding="UTF-8" standalone="no"?>
<!-- Created with Inkscape (http://www.inkscape.org/) -->

<svg
   width="128"
   height="128"
   viewBox="0 0 33.866666 33.866668"
   version="1.1"
   id="svg5169"
   inkscape:version="1.3.2 (091e20ef0f, 2023-11-25)"
   sodipodi:docname="pan.svg"
   xmlns:inkscape="http://www.inkscape.org/namespaces/inkscape"
   xmlns:sodipodi="http://sodipodi.sourceforge.net/DTD/sodipodi-0.dtd"
   xmlns="http://www.w3.org/2000/svg"
   xmlns:svg="http://www.w3.org/2000/svg"
   xmlns:rdf="http://www.w3.org/1999/02/22-rdf-syntax-ns#"
   xmlns:cc="http://creativecommons.org/ns#"
   xmlns:dc="http://purl.org/dc/elements/1.1/">
  <defs
     id="defs5163" />
  <sodipodi:namedview
     id="base"
     pagecolor="#ffffff"
     bordercolor="#666666"
     borderopacity="1.0"
     inkscape:pageopacity="0.0"
     inkscape:pageshadow="2"
     inkscape:zoom="5.6568542"
     inkscape:cx="42.603184"
     inkscape:cy="-12.462757"
     inkscape:document-units="mm"
     inkscape:current-layer="layer1"
     showgrid="false"
     units="px"
     inkscape:window-width="3840"
     inkscape:window-height="2079"
     inkscape:window-x="0"
     inkscape:window-y="0"
     inkscape:window-maximized="1"
     inkscape:showpageshadow="0"
     inkscape:pagecheckerboard="1"
     inkscape:deskcolor="#505050" />
  <metadata
     id="metadata5166">
    <rdf:RDF>
      <cc:Work
         rdf:about="">
        <dc:format>image/svg+xml</dc:format>
        <dc:type
           rdf:resource="http://purl.org/dc/dcmitype/StillImage" />
      </cc:Work>
    </rdf:RDF>
  </metadata>
  <g
     inkscape:label="Layer 1"
     inkscape:groupmode="layer"
     id="layer1"
     transform="translate(0,-263.13332)">
    <path
       style="fill:#000000;fill-opacity:1;stroke:none;stroke-width:3;stroke-linejoin:miter;stroke-dasharray:none;stroke-opacity:1"
       d="m 23.428437,289.26705 c -2.29096,2.68335 -9.574327,7.57006 -15.4702612,-1.58849 -6.1121813,-10.46633 -3.669071,-23.52364 0.4100551,-8.52633 1.4086462,3.1523 1.9876191,1.13494 0.7878839,-4.00549 -1.8866001,-8.08339 1.6313862,-12.70266 3.4980302,-0.90551 1.30241,8.2312 2.04643,2.65704 1.69497,-0.72333 -1.128376,-10.85278 3.727384,-10.78821 3.504677,-1.56348 -0.186195,7.71237 0.447968,9.00805 2.075804,-0.47996 1.264754,-7.37175 5.65217,-6.26339 3.581456,2.71323 -3.450525,14.95816 0.106051,7.83429 0.106051,7.83429 2.967075,-5.34476 10.761047,-6.63078 -0.12742,7.23073 z"
       id="path5"
       sodipodi:nodetypes="cccssssssccc" />
  </g>
</svg>
