<?xml version="1.0" encoding="UTF-8" standalone="no"?>
<!-- Created with Inkscape (http://www.inkscape.org/) -->

<svg
   xmlns:dc="http://purl.org/dc/elements/1.1/"
   xmlns:cc="http://creativecommons.org/ns#"
   xmlns:rdf="http://www.w3.org/1999/02/22-rdf-syntax-ns#"
   xmlns:svg="http://www.w3.org/2000/svg"
   xmlns="http://www.w3.org/2000/svg"
   xmlns:sodipodi="http://sodipodi.sourceforge.net/DTD/sodipodi-0.dtd"
   xmlns:inkscape="http://www.inkscape.org/namespaces/inkscape"
   width="128"
   height="128"
   viewBox="0 0 33.866666 33.866668"
   version="1.1"
   id="svg5169"
   inkscape:version="0.92.4 (5da689c313, 2019-01-14)"
   sodipodi:docname="loading.svg">
  <defs
     id="defs5163">
    <inkscape:path-effect
       effect="skeletal"
       id="path-effect832"
       is_visible="true"
       pattern="M 0,5 C 0,2.24 2.24,0 5,0 7.76,0 10,2.24 10,5 10,7.76 7.76,10 5,10 2.24,10 0,7.76 0,5 Z"
       copytype="single_stretched"
       prop_scale="0.26458333"
       scale_y_rel="false"
       spacing="0"
       normal_offset="0"
       tang_offset="0"
       prop_units="false"
       vertical_pattern="false"
       fuse_tolerance="0" />
  </defs>
  <sodipodi:namedview
     id="base"
     pagecolor="#ffffff"
     bordercolor="#666666"
     borderopacity="1.0"
     inkscape:pageopacity="0.0"
     inkscape:pageshadow="2"
     inkscape:zoom="2.8284271"
     inkscape:cx="79.477589"
     inkscape:cy="82.767918"
     inkscape:document-units="mm"
     inkscape:current-layer="layer1"
     showgrid="false"
     units="px"
     inkscape:window-width="1320"
     inkscape:window-height="984"
     inkscape:window-x="1287"
     inkscape:window-y="512"
     inkscape:window-maximized="0" />
  <metadata
     id="metadata5166">
    <rdf:RDF>
      <cc:Work
         rdf:about="">
        <dc:format>image/svg+xml</dc:format>
        <dc:type
           rdf:resource="http://purl.org/dc/dcmitype/StillImage" />
        <dc:title></dc:title>
      </cc:Work>
    </rdf:RDF>
  </metadata>
  <g
     inkscape:label="Layer 1"
     inkscape:groupmode="layer"
     id="layer1"
     transform="translate(0,-263.13332)">
    <path
       style="fill:#000000;fill-opacity:1;stroke:none;stroke-width:4.97415066;stroke-miterlimit:4;stroke-dasharray:none;stroke-opacity:1"
       d="M 64.802734 8.8007812 A 54.955834 54.955834 0 0 0 25.140625 24.890625 A 54.955834 54.955834 0 0 0 16.40625 91.228516 A 54.955834 54.955834 0 0 0 78.224609 116.83398 A 54.955834 54.955834 0 0 0 118.95508 63.75 L 104.37109 63.75 A 40.370045 40.370045 0 0 1 64 104.12109 A 40.370045 40.370045 0 0 1 23.630859 63.75 A 40.370045 40.370045 0 0 1 64 23.380859 A 40.370045 40.370045 0 0 1 84.167969 28.820312 L 91.478516 16.158203 A 54.955834 54.955834 0 0 0 64.802734 8.8007812 z "
       transform="matrix(0.26458333,0,0,0.26458333,0,263.13332)"
       id="path4525" />
  </g>
</svg>
